<?xml version="1.0" standalone="no"?>
<!DOCTYPE svg PUBLIC "-//W3C//DTD SVG 20010904//EN"
 "http://www.w3.org/TR/2001/REC-SVG-20010904/DTD/svg10.dtd">
<svg version="1.0" xmlns="http://www.w3.org/2000/svg"
 width="656.000000pt" height="660.000000pt" viewBox="0 0 656.000000 660.000000"
 preserveAspectRatio="xMidYMid meet">

<g transform="translate(0.000000,660.000000) scale(0.100000,-0.100000)"
fill="#000000" stroke="none">
<path d="M0 3300 l0 -3300 3280 0 3280 0 0 3300 0 3300 -3280 0 -3280 0 0
-3300z m3355 1666 c73 -19 129 -51 162 -91 40 -48 51 -82 156 -490 69 -266 91
-364 84 -371 -8 -8 -281 68 -327 91 -26 13 -59 38 -74 55 -25 30 -26 37 -26
150 l0 119 53 39 c84 63 97 92 41 92 -39 0 -64 18 -64 45 0 47 73 62 92 20 15
-33 34 -26 31 11 -6 74 -62 114 -170 122 -60 4 -79 1 -118 -18 -51 -25 -85
-69 -85 -112 0 -35 23 -37 38 -3 14 30 41 32 72 7 34 -28 20 -59 -33 -69 -59
-12 -59 -34 -1 -74 85 -58 84 -56 84 -180 0 -127 -10 -151 -83 -193 -38 -22
-230 -83 -314 -99 -29 -6 -33 -4 -33 16 0 41 165 678 200 769 20 54 69 111
119 137 19 11 116 39 136 40 6 1 33 -5 60 -13z m140 -943 c103 -25 214 -60
227 -72 9 -8 -75 -96 -123 -127 -44 -30 -140 -43 -304 -43 -137 -1 -243 12
-286 34 -36 19 -141 124 -134 135 11 17 230 79 365 104 44 8 152 -5 255 -31z
m-1035 -570 c103 -29 188 -143 207 -279 10 -77 0 -82 -59 -29 -86 77 -186 125
-264 125 -51 0 -137 -30 -177 -62 l-38 -30 -63 17 c-96 26 -96 26 -61 91 89
167 246 224 455 167z m1948 0 c69 -21 139 -83 181 -163 18 -34 30 -64 27 -67
-5 -5 -80 -28 -133 -40 -16 -4 -33 4 -58 25 -37 33 -117 62 -170 62 -81 0
-197 -57 -275 -133 -19 -20 -38 -33 -42 -30 -28 17 13 179 62 246 82 112 239
150 408 100z m-2369 -339 c205 -63 585 -192 644 -218 31 -14 57 -29 57 -34 0
-35 -479 -102 -726 -102 -82 0 -128 20 -161 69 -52 77 -11 321 54 321 9 0 69
-16 132 -36z m2698 -16 c24 -47 27 -64 28 -148 0 -183 -46 -205 -377 -180
-275 20 -528 66 -528 95 0 15 178 81 485 180 132 42 256 83 275 90 69 26 87
21 117 -37z m-2762 -451 c82 -18 130 -21 525 -24 267 -3 439 -8 445 -14 7 -7
2 -17 -15 -30 -145 -112 -479 -208 -835 -238 -175 -16 -230 2 -267 86 -27 61
-23 200 6 232 12 13 26 19 35 15 9 -3 57 -15 106 -27z m2797 -8 c20 -39 23
-124 7 -182 -16 -58 -66 -107 -119 -117 -120 -23 -553 46 -760 122 -137 50
-255 117 -247 141 3 9 122 14 443 18 425 6 442 7 539 31 55 14 105 25 110 24
6 -1 18 -18 27 -37z m-1832 -196 c0 -39 -251 -237 -385 -303 -129 -64 -318
-100 -416 -79 -72 16 -99 43 -114 115 -7 32 -10 62 -6 65 3 4 60 12 126 18
250 24 421 62 610 136 183 71 185 72 185 48z m847 -29 c227 -88 417 -132 664
-156 144 -13 139 -9 119 -92 -20 -89 -99 -123 -245 -105 -119 14 -191 35 -282
79 -137 68 -383 261 -383 301 0 11 2 19 4 19 2 0 58 -21 123 -46z m-777 -352
c0 -13 -127 -114 -213 -170 l-79 -51 -211 4 -212 4 -27 43 c-36 59 -35 76 5
82 142 22 179 30 238 51 57 20 87 23 225 25 87 0 179 5 204 9 63 12 70 12 70
3z m645 -2 c33 -6 128 -11 210 -11 133 0 158 -3 222 -25 40 -13 116 -31 169
-39 53 -8 99 -17 102 -20 3 -3 -6 -30 -20 -59 l-26 -53 -84 -7 c-80 -7 -158
-32 -172 -55 -12 -19 -33 -13 -139 38 -111 54 -213 122 -292 194 -55 51 -55
51 30 37z m858 -510 c15 -69 46 -208 67 -310 22 -102 53 -250 70 -329 17 -79
30 -145 28 -146 -4 -4 -259 33 -265 38 -3 4 -22 230 -23 275 0 21 -4 22 -70
22 -60 0 -70 -3 -71 -17 0 -10 -19 -74 -43 -143 l-42 -125 -104 4 c-58 2 -107
5 -109 7 -2 2 21 95 52 206 30 112 67 250 81 308 15 58 39 150 55 205 l28 100
119 16 c66 9 137 16 159 15 l39 -1 29 -125z m-672 30 c7 -93 23 -531 24 -650
l0 -75 -105 3 c-58 2 -109 8 -114 12 -5 5 -12 71 -17 147 -11 192 -31 352 -40
328 -16 -46 -42 -140 -82 -305 l-42 -175 -58 -3 -58 -3 -16 38 c-15 35 -105
275 -140 371 -20 57 -37 55 -30 -5 4 -27 7 -129 8 -228 l2 -180 -119 -7 c-66
-3 -123 -4 -128 -1 -4 3 -5 101 -2 217 3 116 6 298 6 404 l0 192 173 0 173 0
11 -27 c7 -16 21 -48 31 -73 10 -25 32 -73 48 -106 l30 -62 31 62 c17 33 47
96 67 139 l36 78 152 -3 153 -3 6 -85z m-2291 63 c0 -19 -12 -190 -36 -496 -9
-110 -13 -202 -9 -205 3 -4 86 4 183 16 248 31 222 41 222 -77 l0 -99 -37 -6
c-21 -3 -99 -12 -173 -21 -74 -8 -197 -25 -274 -36 -76 -11 -141 -17 -145 -12
-3 4 -3 107 0 228 4 121 7 324 8 452 1 159 5 234 12 239 12 7 171 31 222 33
19 1 27 -4 27 -16z m970 -93 l0 -110 -114 0 -114 0 -5 -42 c-3 -24 -12 -161
-18 -306 -12 -252 -14 -263 -33 -267 -32 -6 -175 -25 -191 -25 -13 0 -14 46
-12 313 l2 312 -107 -4 -108 -3 0 106 c0 58 1 107 3 107 5 3 517 26 605 27
l92 2 0 -110z m2820 -27 l0 -136 -110 6 c-83 5 -112 4 -115 -6 -2 -6 -6 -59
-9 -117 -3 -58 -10 -186 -15 -285 -5 -99 -10 -200 -10 -223 l-1 -44 -42 8
c-24 4 -72 10 -108 13 l-65 6 4 326 c2 264 1 328 -10 335 -8 4 -59 10 -114 14
l-100 5 -3 103 c-2 76 1 103 10 107 7 2 153 8 323 13 171 5 322 9 338 10 l27
2 0 -137z m794 60 c4 -43 9 -99 12 -125 l6 -48 -44 0 c-121 -1 -435 -12 -446
-15 -9 -4 -12 -27 -10 -87 l3 -83 75 -8 c98 -10 201 -25 207 -30 7 -8 26 -197
20 -203 -3 -3 -59 3 -124 15 -65 12 -138 21 -162 21 l-43 0 7 -83 c4 -45 11
-87 16 -93 5 -7 31 -15 57 -19 26 -4 112 -22 192 -40 80 -19 158 -35 174 -37
22 -2 31 -10 37 -29 9 -37 22 -265 16 -277 -5 -7 -142 32 -172 50 -6 3 -50 18
-100 33 -49 15 -128 40 -175 55 -47 15 -116 35 -155 45 -38 10 -75 23 -82 29
-10 10 -28 567 -28 896 l0 95 195 5 c107 3 268 7 356 8 l162 2 6 -77z m-5513
58 c84 -1 118 -5 122 -13 5 -14 -1 -97 -32 -493 -11 -143 -21 -280 -21 -304
l0 -44 38 7 c20 4 72 13 114 19 42 7 79 15 82 18 6 5 -9 188 -45 572 -7 70 -9
130 -5 135 8 8 274 31 292 25 8 -3 13 -100 18 -306 3 -166 9 -368 12 -449 l7
-146 -54 -15 c-30 -9 -121 -32 -204 -51 -126 -30 -256 -65 -433 -118 -19 -5
-39 -7 -46 -5 -17 7 -33 1157 -16 1167 6 4 21 5 33 4 12 -1 74 -3 138 -3z
m2229 -65 l0 -73 -122 -6 c-68 -3 -125 -4 -127 -1 -2 2 -6 37 -9 79 l-5 75
132 0 131 0 0 -74z m0 -398 c0 -145 -4 -269 -9 -276 -9 -16 -201 -31 -201 -16
0 5 -11 126 -25 269 -14 143 -25 266 -25 273 0 9 33 12 130 12 l130 0 0 -262z"/>
<path d="M4293 1375 c-34 -94 -37 -88 45 -100 32 -5 42 -4 42 7 0 20 -40 162
-49 170 -4 4 -21 -30 -38 -77z"/>
</g>
</svg>
